# File created by Blade
# Date/Time:  Thu Jan 22 16:00:44 2015
# Frame Rate: 120.000 fps
#------------------------------------------------------
:FULLY-SPECIFIED
:DEGREES
1528
root 2.485207 37.093626 7.211127 2.389332 -5.222135 2.013953
RightUpLeg 6.953028 3.913667 -4.448924
RightLeg -5.356512 -0.000000 0.000000
RightFoot -11.382994 -10.736668 17.458801
RightToeBase 13.762184 -0.000000 -0.000000
LeftUpLeg 5.925908 7.705077 3.196161
LeftLeg -3.644604 -0.000000 0.000000
LeftFoot -6.310442 6.048841 -19.388207
LeftToeBase 8.446985 -0.000000 -0.000000
Spine -8.921496 -10.941590 -3.018033
RightShoulder -19.412594 14.956958 -44.532850
RightArm 145.935345 44.582495 93.034414
RightForeArm 38.674739 0.000000 149.632799
RightHand 24.388366 -0.000000 -8.331972
RightHandThumb1 -24.326973 -0.000000 -32.862282
LeftShoulder -6.683385 50.981924 1.980895
LeftArm 121.796814 37.215095 34.991459
LeftForeArm 49.135194 -0.000000 135.029331
LeftHand -6.552103 -0.000000 -5.233680
LeftHandThumb1 -26.253704 0.000000 33.147579
Head 35.436223 20.154999 18.060979
1529
root 2.486703 37.094490 7.212201 2.368392 -5.219194 2.011270
RightUpLeg 6.963128 3.923599 -4.444414
RightLeg -5.329945 -0.000000 0.000000
RightFoot -11.397302 -10.742801 17.469915
RightToeBase 13.790389 -0.000000 -0.000000
LeftUpLeg 5.935367 7.681302 3.196946
LeftLeg -3.618974 -0.000000 0.000000
LeftFoot -6.311599 6.045516 -19.474825
LeftToeBase 8.357521 -0.000000 -0.000000
Spine -8.925432 -10.942356 -3.002543
RightShoulder -19.402880 14.946555 -44.521324
RightArm 145.933879 44.585289 93.016841
RightForeArm 38.622572 0.000000 149.636008
RightHand 24.405803 -0.000000 -8.268356
RightHandThumb1 -24.326973 -0.000000 -32.862282
LeftShoulder -6.714575 50.963395 1.957798
LeftArm 121.772434 37.230620 34.967493
LeftForeArm 49.091938 -0.000000 135.025884
LeftHand -6.420734 0.000000 -5.280349
LeftHandThumb1 -26.253704 0.000000 33.147579
Head 35.452577 20.167383 18.083369
1530
root 2.487994 37.095516 7.213404 2.351725 -5.219768 2.009742
RightUpLeg 6.970807 3.934531 -4.442335
RightLeg -5.308703 -0.000000 0.000000
RightFoot -11.412748 -10.757410 17.483510
RightToeBase 13.793877 -0.000000 -0.000000
LeftUpLeg 5.943127 7.653388 3.195664
LeftLeg -3.596695 -0.000000 0.000000
LeftFoot -6.321830 6.068559 -19.440588
LeftToeBase 8.353921 -0.000000 -0.000000
Spine -8.934226 -10.932752 -2.985771
RightShoulder -19.398308 14.913354 -44.502676
RightArm 145.984461 44.572547 93.019056
RightForeArm 38.625307 0.000000 149.631773
RightHand 24.377421 -0.000000 -8.265188
RightHandThumb1 -24.326973 -0.000000 -32.862282
LeftShoulder -6.735866 50.943701 1.947447
LeftArm 121.766741 37.249018 34.949860
LeftForeArm 49.094747 0.000000 135.028723
LeftHand -6.281971 0.000000 -5.352035
LeftHandThumb1 -26.253704 0.000000 33.147579
Head 35.466940 20.168548 18.091928
1531
root 2.489787 37.096215 7.214463 2.336804 -5.223276 2.012600
RightUpLeg 6.968124 3.948258 -4.446730
RightLeg -5.269614 -0.000000 0.000000
RightFoot -11.435446 -10.753028 17.493564
RightToeBase 13.822121 -0.000000 -0.000000
LeftUpLeg 5.947448 7.645604 3.189087
LeftLeg -3.571530 -0.000000 0.000000
LeftFoot -6.358321 6.098996 -19.412249
LeftToeBase 8.422834 -0.000000 -0.000000
Spine -8.947160 -10.917786 -2.972781
RightShoulder -19.389602 14.887703 -44.492450
RightArm 146.040487 44.583456 93.065101
RightForeArm 38.620672 -0.000000 149.625525
RightHand 24.373826 -0.000000 -8.269649
RightHandThumb1 -24.326973 -0.000000 -32.862282
LeftShoulder -6.741130 50.938482 1.945193
LeftArm 121.730747 37.276702 34.910754
LeftForeArm 49.103475 -0.000000 135.030775
LeftHand -6.150896 -0.000000 -5.416615
LeftHandThumb1 -26.253704 0.000000 33.147579
Head 35.484610 20.176837 18.104259
